<?xml version="1.0" standalone="no"?><svg xmlns="http://www.w3.org/2000/svg" viewBox="0 0 1440 320"><path fill="#ff5500" fill-opacity="1" d="M0,224L16,218.7C32,213,64,203,96,181.3C128,160,160,128,192,112C224,96,256,96,288,117.3C320,139,352,181,384,181.3C416,181,448,139,480,106.7C512,75,544,53,576,85.3C608,117,640,203,672,245.3C704,288,736,288,768,250.7C800,213,832,139,864,122.7C896,107,928,149,960,176C992,203,1024,213,1056,197.3C1088,181,1120,139,1152,101.3C1184,64,1216,32,1248,48C1280,64,1312,128,1344,160C1376,192,1408,192,1424,192L1440,192L1440,320L1424,320C1408,320,1376,320,1344,320C1312,320,1280,320,1248,320C1216,320,1184,320,1152,320C1120,320,1088,320,1056,320C1024,320,992,320,960,320C928,320,896,320,864,320C832,320,800,320,768,320C736,320,704,320,672,320C640,320,608,320,576,320C544,320,512,320,480,320C448,320,416,320,384,320C352,320,320,320,288,320C256,320,224,320,192,320C160,320,128,320,96,320C64,320,32,320,16,320L0,320Z"></path></svg>