<?xml version="1.0" standalone="no"?><svg xmlns="http://www.w3.org/2000/svg" viewBox="0 0 1440 320"><path fill="#00cba9" fill-opacity="1" d="M0,224L16,192C32,160,64,96,96,64C128,32,160,32,192,32C224,32,256,32,288,69.3C320,107,352,181,384,192C416,203,448,149,480,144C512,139,544,181,576,176C608,171,640,117,672,96C704,75,736,85,768,122.7C800,160,832,224,864,218.7C896,213,928,139,960,128C992,117,1024,171,1056,176C1088,181,1120,139,1152,138.7C1184,139,1216,181,1248,186.7C1280,192,1312,160,1344,122.7C1376,85,1408,43,1424,21.3L1440,0L1440,0L1424,0C1408,0,1376,0,1344,0C1312,0,1280,0,1248,0C1216,0,1184,0,1152,0C1120,0,1088,0,1056,0C1024,0,992,0,960,0C928,0,896,0,864,0C832,0,800,0,768,0C736,0,704,0,672,0C640,0,608,0,576,0C544,0,512,0,480,0C448,0,416,0,384,0C352,0,320,0,288,0C256,0,224,0,192,0C160,0,128,0,96,0C64,0,32,0,16,0L0,0Z"></path></svg>